<svg xmlns="http://www.w3.org/2000/svg" version="1.1" xmlns:xlink="http://www.w3.org/1999/xlink" xmlns:svgjs="http://svgjs.com/svgjs" width="1440" height="1050" preserveAspectRatio="none" viewBox="0 0 1440 1050"><g mask="url(&quot;#SvgjsMask1152&quot;)" fill="none"><rect width="1440" height="1050" x="0" y="0" fill="#1e3266"></rect><path d="M1512 1050L0 1050 L0 845.9Q63.68 789.58, 120 853.26Q157.55 770.81, 240 808.36Q316.93 765.29, 360 842.22Q389.5 799.72, 432 829.22Q483.97 809.19, 504 861.17Q511.52 796.69, 576 804.21Q634.25 790.47, 648 848.72Q696.36 825.08, 720 873.44Q774.45 807.89, 840 862.35Q869.4 771.75, 960 801.15Q1026.24 747.39, 1080 813.64Q1174.93 788.57, 1200 883.5Q1226.03 837.53, 1272 863.56Q1323.51 795.07, 1392 846.57Q1471.67 806.25, 1512 885.92z" fill="#182f5d"></path><path d="M1488 1050L0 1050 L0 870.29Q80.98 831.26, 120 912.24Q190.66 862.9, 240 933.57Q253.98 875.55, 312 889.52Q342.72 848.24, 384 878.95Q445.62 868.57, 456 930.19Q461.38 863.57, 528 868.94Q567.91 836.85, 600 876.76Q671.7 828.46, 720 900.17Q796.91 857.08, 840 933.99Q894.75 868.74, 960 923.49Q970.45 861.94, 1032 872.39Q1098.3 818.68, 1152 884.98Q1176.3 837.28, 1224 861.58Q1277.11 842.69, 1296 895.81Q1366.92 846.73, 1416 917.65Q1428.61 858.25, 1488 870.86z" fill="#25467d"></path><path d="M1536 1050L0 1050 L0 942.64Q65.46 936.1, 72 1001.56Q84.44 942, 144 954.44Q167.08 905.52, 216 928.6Q302.73 895.33, 336 982.05Q384.62 910.67, 456 959.29Q479.02 910.31, 528 933.33Q582.69 916.02, 600 970.7Q677.01 927.72, 720 1004.73Q729.66 942.39, 792 952.06Q839.03 879.09, 912 926.11Q973.86 915.97, 984 977.83Q1028.01 901.84, 1104 945.84Q1131.04 900.88, 1176 927.92Q1274.69 906.61, 1296 1005.3Q1324.64 913.94, 1416 942.58Q1487.53 894.11, 1536 965.64z" fill="#356cb1"></path><path d="M1512 1050L0 1050 L0 1035.29Q43.95 959.24, 120 1003.19Q214.09 977.28, 240 1071.36Q248.84 1008.19, 312 1017.03Q377.18 962.21, 432 1027.39Q475.58 998.97, 504 1042.54Q515.16 981.7, 576 992.87Q617.2 962.07, 648 1003.27Q707.08 990.35, 720 1049.42Q744.18 1001.61, 792 1025.79Q839.64 953.43, 912 1001.08Q991.48 960.56, 1032 1040.03Q1082.59 1018.62, 1104 1069.2Q1130.85 1024.05, 1176 1050.9Q1209.36 964.26, 1296 997.62Q1348.49 978.11, 1368 1030.6Q1394.89 985.49, 1440 1012.39Q1464.8 965.19, 1512 990z" fill="white"></path></g><defs><mask id="SvgjsMask1152"><rect width="1440" height="1050" fill="#ffffff"></rect></mask></defs></svg>