<svg xmlns="http://www.w3.org/2000/svg" version="1.1" xmlns:xlink="http://www.w3.org/1999/xlink" xmlns:svgjs="http://svgjs.com/svgjs" width="1200" height="300" preserveAspectRatio="none" viewBox="0 0 1200 300"><g mask="url(&quot;#SvgjsMask1041&quot;)" fill="none"><rect width="1200" height="300" x="0" y="0" fill="rgba(11, 194, 115, 1)"></rect><path d="M508.1-18.91C432.3-5.53 463.94 177.36 275.52 182.82 87.11 188.28-71.46 266.48-189.63 266.82" stroke="rgba(255, 255, 255, 1)" stroke-width="2"></path><path d="M922.95-5.48C826.58-5.16 733.77 66.27 544.2 66.28 354.63 66.29 354.82 28.78 165.45 28.78-23.93 28.78-118.15 66.23-213.3 66.28" stroke="rgba(255, 255, 255, 1)" stroke-width="2"></path><path d="M595.4-23.07C492.44-7.98 438.56 234.09 269.43 235.75 100.29 237.41 27.24 158.29-56.55 157.75" stroke="rgba(255, 255, 255, 1)" stroke-width="2"></path><path d="M760.61-55.46C672.74-39.53 696.54 179.81 492.3 180.33 288.05 180.85 91.96 84.71-44.33 84.33" stroke="rgba(255, 255, 255, 1)" stroke-width="2"></path><path d="M727.5-15.88C608.46-2.48 537.12 258.9 335.86 260.17 134.6 261.44 44.68 170.75-55.78 170.17" stroke="rgba(255, 255, 255, 1)" stroke-width="2"></path></g><defs><mask id="SvgjsMask1041"><rect width="1200" height="300" fill="#ffffff"></rect></mask></defs></svg>