<svg xmlns="http://www.w3.org/2000/svg" version="1.1" xmlns:xlink="http://www.w3.org/1999/xlink" xmlns:svgjs="http://svgjs.com/svgjs" width="1440" height="430" preserveAspectRatio="none" viewBox="0 0 1440 430"><g mask="url(&quot;#SvgjsMask1041&quot;)" fill="none"><path d="M693.55 494.73C825.27 473.92 891.6 158.1 1105.55 155.92 1319.51 153.74 1411.11 262.54 1517.56 263.42" stroke="rgba(213, 170, 59, 1)" stroke-width="2"></path><path d="M654.17 503.44C776.05 494.78 848.42 264.96 1076.96 258.22 1305.5 251.48 1390.95 155.76 1499.75 155.02" stroke="rgba(213, 170, 59, 1)" stroke-width="2"></path><path d="M748.3 435.01C872.39 389.48 818.03 20.95 1072.74 17.53 1327.44 14.11 1556.82 133.17 1721.61 133.63" stroke="rgba(213, 170, 59, 1)" stroke-width="2"></path><path d="M276.78 514.64C391.63 505.06 467.1 273.14 668.65 271.81 870.2 270.48 864.58 325.56 1060.51 325.56 1256.45 325.56 1353.5 271.94 1452.38 271.81" stroke="rgba(213, 170, 59, 1)" stroke-width="2"></path><path d="M296.65 486.76C420.31 484.6 529.35 327.59 765.02 327.42 1000.69 327.25 999.21 381.17 1233.4 381.17 1467.58 381.17 1583.91 327.51 1701.77 327.42" stroke="rgba(213, 170, 59, 1)" stroke-width="2"></path></g><defs><mask id="SvgjsMask1041"><rect width="1440" height="430" fill="#ffffff"></rect></mask></defs></svg>