<svg xmlns="http://www.w3.org/2000/svg" version="1.1" xmlns:xlink="http://www.w3.org/1999/xlink" xmlns:svgjs="http://svgjs.com/svgjs" width="1440" height="800" preserveAspectRatio="none" viewBox="0 0 1440 800"><g mask="url(&quot;#SvgjsMask1097&quot;)" fill="none"><rect width="1440" height="800" x="0" y="0" fill="rgba(24, 47, 93, 1)"></rect><path d="M-22.86 322.17C168.62 335.64 362.86 692.02 642.02 706.17 921.18 720.32 886 825.67 974.46 827.55" stroke="rgba(213, 170, 59, 1)" stroke-width="2"></path><path d="M-208.35 265.43C-18.21 270.92 186.85 528.07 495.94 553.43 805.02 578.79 725.47 885.38 848.08 915.67" stroke="rgba(213, 170, 59, 1)" stroke-width="2"></path><path d="M-264.06 573.09C-160.34 568.16-88.93 385.36 108.3 389.09 305.52 392.82 342.67 789.23 480.65 833.87" stroke="rgba(213, 170, 59, 1)" stroke-width="2"></path><path d="M-268.55 757.62C-126.23 733.09-54.58 380.46 170.03 381.62 394.64 382.78 440.09 889.13 608.61 952.07" stroke="rgba(213, 170, 59, 1)" stroke-width="2"></path><path d="M-57.78 760.05C115.59 758.38 356.14 575.34 610.89 576.05 865.63 576.76 826.1 907.12 945.22 939.76" stroke="rgba(213, 170, 59, 1)" stroke-width="2"></path></g><defs><mask id="SvgjsMask1097"><rect width="1440" height="800" fill="#ffffff"></rect></mask></defs></svg>