<svg xmlns="http://www.w3.org/2000/svg" version="1.1" xmlns:xlink="http://www.w3.org/1999/xlink" xmlns:svgjs="http://svgjs.com/svgjs" width="1433" height="672" preserveAspectRatio="none" viewBox="0 0 1433 672"><g mask="url(&quot;#SvgjsMask1018&quot;)" fill="none"><rect width="1433" height="672" x="0" y="0" fill="rgba(24, 47, 93, 1)"></rect><path d="M1480.7666666666669 672L0 672 L0 449.16Q71.32 401.06, 119.41666666666666 472.38Q148.72 430.03, 191.06666666666666 459.34Q265.79 414.65, 310.48333333333335 489.37Q378.74 438.21, 429.9 506.46Q441.09 446, 501.54999999999995 457.19Q573.89 410.12, 620.9666666666666 482.46Q663.11 452.95, 692.6166666666666 495.09Q731.69 414.75, 812.0333333333332 453.83Q879.68 402.06, 931.4499999999998 469.7Q1000.66 419.49, 1050.8666666666666 488.7Q1090.19 408.61, 1170.2833333333333 447.93Q1243.92 402.15, 1289.7 475.78Q1317.03 431.46, 1361.3500000000001 458.79Q1439.43 417.45, 1480.7666666666669 495.53z" fill="rgba(95, 181, 73, 1)"></path><path d="M1480.7666666666669 672L0 672 L0 547.01Q32.21 459.81, 119.41666666666666 492.02Q188.84 442.03, 238.83333333333331 511.45Q293.68 494.65, 310.48333333333335 549.5Q341.29 460.89, 429.9 491.7Q475.22 465.38, 501.54999999999995 510.7Q571.88 461.61, 620.9666666666666 531.94Q685.98 477.54, 740.3833333333332 542.56Q781.4 511.93, 812.0333333333332 552.95Q842.85 464.35, 931.4499999999998 495.16Q973.95 466.01, 1003.0999999999998 508.51Q1085.02 471.02, 1122.5166666666664 552.94Q1152.78 511.56, 1194.1666666666665 541.82Q1223.42 499.42, 1265.8166666666666 528.68Q1283.03 474.24, 1337.4666666666667 491.45Q1380.96 463.29, 1409.1166666666668 506.78Q1457.87 483.88, 1480.7666666666669 532.64z" fill="rgba(53, 108, 177, 1)"></path><path d="M1456.8833333333334 672L0 672 L0 576.66Q56.93 514.17, 119.41666666666666 571.1Q162.94 495.2, 238.83333333333331 538.72Q280.82 509.06, 310.48333333333335 551.05Q364.98 533.9, 382.1333333333333 588.4Q436.71 523.56, 501.54999999999995 578.14Q540.66 497.83, 620.9666666666666 536.94Q692.87 489.43, 740.3833333333332 561.33Q769.6 518.89, 812.0333333333332 548.11Q863.92 528.35, 883.6833333333332 580.23Q908.97 533.87, 955.3333333333331 559.15Q984.36 516.53, 1026.9833333333331 545.56Q1108.86 508.02, 1146.3999999999999 589.9Q1189.45 513.54, 1265.8166666666666 556.59Q1293.07 512.19, 1337.4666666666667 539.45Q1420 502.57, 1456.8833333333334 585.1z" fill="rgba(215, 113, 0, 1)"></path><path d="M1504.65 672L0 672 L0 584.57Q59.95 525.1, 119.41666666666666 585.05Q166.76 560.74, 191.06666666666666 608.08Q244.83 590.19, 262.7166666666667 643.96Q297.59 559.42, 382.1333333333333 594.29Q454.2 546.94, 501.54999999999995 619.01Q519.95 565.76, 573.1999999999999 584.16Q655.42 546.96, 692.6166666666666 629.18Q711.6 576.51, 764.2666666666665 595.5Q848.33 560.15, 883.6833333333332 644.21Q932.11 573.22, 1003.0999999999998 621.64Q1049.78 548.91, 1122.5166666666664 595.59Q1152.65 554.08, 1194.1666666666665 584.21Q1278.66 549.29, 1313.5833333333333 633.78Q1360.13 560.91, 1433 607.45Q1474.7 577.5, 1504.65 619.21z" fill="rgba(242, 221, 83, 1)"></path><path d="M1504.65 672L0 672 L0 681.98Q28.58 638.91, 71.65 667.5Q101.23 625.42, 143.3 655Q174.01 614.07, 214.95000000000002 644.78Q264.73 622.91, 286.6 672.69Q300.91 615.35, 358.25 629.65Q403.57 603.32, 429.9 648.64Q500.28 599.61, 549.3166666666666 669.99Q617.6 618.86, 668.7333333333332 687.14Q677.77 624.53, 740.3833333333332 633.57Q784.35 605.89, 812.0333333333332 649.86Q877.69 596.1, 931.4499999999998 661.76Q976.77 635.43, 1003.0999999999998 680.76Q1036.43 594.68, 1122.5166666666664 628.01Q1175.72 609.56, 1194.1666666666665 662.76Q1235.45 632.39, 1265.8166666666666 673.68Q1306.37 594.81, 1385.2333333333333 635.36Q1455.98 586.69, 1504.65 657.43z" fill="white"></path></g><defs><mask id="SvgjsMask1018"><rect width="1433" height="672" fill="#ffffff"></rect></mask></defs></svg>