<svg xmlns="http://www.w3.org/2000/svg" version="1.1" xmlns:xlink="http://www.w3.org/1999/xlink" xmlns:svgjs="http://svgjs.com/svgjs" width="1433" height="456" preserveAspectRatio="none" viewBox="0 0 1433 456"><g mask="url(&quot;#SvgjsMask1107&quot;)" fill="none"><rect width="1433" height="456" x="0" y="0" fill="rgba(24, 47, 93, 1)"></rect><path d="M1480.7666666666669 456L0 456 L0 317.74Q27.62 273.71, 71.65 301.34Q131.19 289.23, 143.3 348.78Q171.4 305.23, 214.95000000000002 333.34Q240.94 287.68, 286.6 313.67Q340.78 248.43, 406.01666666666665 302.61Q489.89 267.07, 525.4333333333333 350.94Q553.73 307.59, 597.0833333333333 335.88Q615.91 283.05, 668.7333333333332 301.88Q752.23 265.96, 788.1499999999999 349.45Q834.43 276.31, 907.5666666666665 322.59Q958.02 253.63, 1026.9833333333331 304.08Q1105.08 262.76, 1146.3999999999999 340.85Q1176.67 299.47, 1218.05 329.75Q1268.65 260.93, 1337.4666666666667 311.53Q1390.84 293.25, 1409.1166666666668 346.63Q1439.16 305.02, 1480.7666666666669 335.07z" fill="rgba(24, 47, 93, 1)"></path><path d="M1528.5333333333335 456L0 456 L0 375.59Q68.82 324.99, 119.41666666666666 393.81Q154.38 309.35, 238.83333333333331 344.31Q309.93 295.99, 358.25 367.08Q405.67 342.85, 429.9 390.27Q472.42 313.38, 549.3166666666666 355.9Q578.05 312.98, 620.9666666666666 341.71Q674.01 323.1, 692.6166666666666 376.14Q736.34 348.21, 764.2666666666665 391.93Q784.82 340.83, 835.9166666666665 361.38Q880.89 334.7, 907.5666666666665 379.67Q952.27 304.96, 1026.9833333333331 349.67Q1069.57 320.6, 1098.6333333333332 363.19Q1170.08 315.22, 1218.05 386.66Q1260.24 309.44, 1337.4666666666667 351.63Q1380.26 322.77, 1409.1166666666668 365.57Q1478.84 315.87, 1528.5333333333335 385.59z" fill="#25467d"></path><path d="M1528.5333333333335 456L0 456 L0 417.11Q23.52 368.98, 71.65 392.5Q125.25 326.68, 191.06666666666666 380.28Q264.73 334.53, 310.48333333333335 408.19Q380.43 358.72, 429.9 428.66Q469.91 349.25, 549.3166666666666 389.26Q622.85 343.38, 668.7333333333332 416.92Q698.52 375.06, 740.3833333333332 404.84Q787.87 380.67, 812.0333333333332 428.16Q849.88 346.59, 931.4499999999998 384.43Q998.64 332.21, 1050.8666666666666 399.4Q1119.46 348.58, 1170.2833333333333 417.18Q1235.12 362.6, 1289.7 427.44Q1332.96 351.29, 1409.1166666666668 394.55Q1461.59 327.6, 1528.5333333333335 380.07z" fill="#356cb1"></path><path d="M1433.0000000000002 456L0 456 L0 465.65Q26.79 420.79, 71.65 447.58Q100.81 405.09, 143.3 434.26Q194.75 366.3, 262.7166666666667 417.75Q312.35 395.73, 334.3666666666667 445.36Q362.17 401.52, 406.01666666666665 429.32Q486.34 390.23, 525.4333333333333 470.55Q535.15 408.62, 597.0833333333333 418.33Q639.55 389.15, 668.7333333333332 431.62Q719.2 410.44, 740.3833333333332 460.91Q767.64 416.51, 812.0333333333332 443.77Q862.75 375.07, 931.4499999999998 425.79Q1012.49 387.41, 1050.8666666666666 468.45Q1103.74 401.91, 1170.2833333333333 454.79Q1198.84 411.7, 1241.9333333333334 440.26Q1293.96 372.87, 1361.3500000000001 424.89Q1412.61 404.49, 1433.0000000000002 455.75z" fill="white"></path></g><defs><mask id="SvgjsMask1107"><rect width="1433" height="456" fill="#ffffff"></rect></mask></defs></svg>