<svg xmlns="http://www.w3.org/2000/svg" version="1.1" xmlns:xlink="http://www.w3.org/1999/xlink" xmlns:svgjs="http://svgjs.com/svgjs" width="1440" height="880" preserveAspectRatio="none" viewBox="0 0 1440 880"><g mask="url(&quot;#SvgjsMask1003&quot;)" fill="none"><rect width="1440" height="880" x="0" y="0" fill="#1e3266"></rect><path d="M1536 880L0 880 L0 505.87Q65.92 499.79, 72 565.71Q75.73 449.44, 192 453.17Q257.88 399.06, 312 464.94Q361 441.94, 384 490.94Q434.81 469.75, 456 520.56Q538.93 483.49, 576 566.43Q593.4 463.83, 696 481.23Q740.62 405.85, 816 450.47Q859.27 421.75, 888 465.02Q967.09 424.11, 1008 503.19Q1064.36 487.54, 1080 543.9Q1149.91 493.81, 1200 563.72Q1217.15 508.88, 1272 526.03Q1269.57 451.6, 1344 449.17Q1437.6 470.76, 1416 564.36Q1445.35 473.71, 1536 503.05z" fill="#182f5d"></path><path d="M1464 880L0 880 L0 637.95Q78.92 596.87, 120 675.79Q131.48 615.26, 192 626.74Q225.11 539.85, 312 572.95Q360.91 549.87, 384 598.78Q465.67 560.45, 504 642.13Q561.12 627.25, 576 684.36Q629.08 617.44, 696 670.53Q700.09 602.62, 768 606.71Q785.25 551.97, 840 569.22Q890.67 499.89, 960 550.57Q1045.35 515.92, 1080 601.28Q1132.13 581.41, 1152 633.55Q1173.27 534.82, 1272 556.09Q1313.62 525.71, 1344 567.33Q1468.42 571.75, 1464 696.18z" fill="#25467d"></path><path d="M1512 880L0 880 L0 702.4Q41.19 623.59, 120 664.77Q164.08 636.85, 192 680.93Q238.72 655.65, 264 702.37Q321.86 688.23, 336 746.08Q381.83 719.91, 408 765.75Q477.69 715.44, 528 785.13Q537.72 674.85, 648 684.56Q690.17 654.73, 720 696.91Q838.07 694.98, 840 813.05Q858.03 759.08, 912 777.1Q944.25 689.35, 1032 721.6Q1103.34 672.93, 1152 744.27Q1237.35 709.62, 1272 794.96Q1316.22 719.18, 1392 763.41Q1427.54 678.95, 1512 714.49z" fill="#356cb1"></path><path d="M1464 880L0 880 L0 900.32Q-2.26 778.07, 120 775.81Q210.46 746.26, 240 836.72Q293.63 818.35, 312 871.98Q321.75 761.73, 432 771.47Q497.2 716.67, 552 781.88Q640.98 750.86, 672 839.84Q687.17 783.01, 744 798.18Q772.06 754.24, 816 782.3Q877.09 771.39, 888 832.48Q957.7 782.18, 1008 851.89Q1013.73 785.62, 1080 791.34Q1149.1 740.44, 1200 809.54Q1259.81 797.35, 1272 857.15Q1333.79 846.94, 1344 908.73Q1392.27 837, 1464 885.27z" fill="white"></path></g><defs><mask id="SvgjsMask1003"><rect width="1440" height="880" fill="#ffffff"></rect></mask></defs></svg>