<svg xmlns="http://www.w3.org/2000/svg" version="1.1" xmlns:xlink="http://www.w3.org/1999/xlink" xmlns:svgjs="http://svgjs.com/svgjs" width="1440" height="1100" preserveAspectRatio="none" viewBox="0 0 1440 1100"><g mask="url(&quot;#SvgjsMask1136&quot;)" fill="none"><rect width="1440" height="1100" x="0" y="0" fill="#1e3266"></rect><path d="M1464 1100L0 1100 L0 950.21Q31.21 909.42, 72 940.64Q107.54 856.18, 192 891.72Q222.72 850.44, 264 881.17Q327.7 872.87, 336 936.56Q366.75 895.3, 408 926.05Q450.78 848.83, 528 891.61Q616.7 860.31, 648 949.01Q698.17 879.18, 768 929.36Q814.18 855.54, 888 901.71Q949.5 891.21, 960 952.71Q982.59 903.3, 1032 925.88Q1053.63 875.51, 1104 897.15Q1147.65 868.8, 1176 912.45Q1197.53 861.99, 1248 883.52Q1290.22 853.74, 1320 895.95Q1371.69 875.64, 1392 927.34Q1440.16 903.5, 1464 951.67z" fill="#182f5d"></path><path d="M1464 1100L0 1100 L0 967.09Q34.39 929.48, 72 963.87Q123.25 943.12, 144 994.36Q182.33 912.69, 264 951.03Q308.11 923.14, 336 967.25Q411.77 923.02, 456 998.8Q486.05 908.85, 576 938.9Q623.24 914.13, 648 961.37Q717.63 911, 768 980.64Q806.55 899.19, 888 937.75Q940.27 918.02, 960 970.3Q1033.64 923.94, 1080 997.58Q1115.92 913.5, 1200 949.43Q1268.92 898.35, 1320 967.27Q1369.85 945.12, 1392 994.96Q1408.85 939.81, 1464 956.65z" fill="#25467d"></path><path d="M1464 1100L0 1100 L0 1012.58Q74.87 967.45, 120 1042.32Q131.01 981.33, 192 992.34Q236.56 964.9, 264 1009.47Q335.47 960.94, 384 1032.4Q399.63 976.03, 456 991.65Q502.86 966.5, 528 1013.36Q582.69 948.05, 648 1002.74Q701.82 936.56, 768 990.38Q826.21 976.59, 840 1034.79Q886.73 961.52, 960 1008.25Q1003.51 979.76, 1032 1023.27Q1086.32 1005.59, 1104 1059.91Q1150.94 986.86, 1224 1033.8Q1289.11 978.91, 1344 1044.02Q1385.78 965.8, 1464 1007.58z" fill="#356cb1"></path><path d="M1488 1100L0 1100 L0 1120.56Q13.42 1061.98, 72 1075.4Q137.21 1020.62, 192 1085.83Q209.24 1031.07, 264 1048.3Q311.99 1024.29, 336 1072.28Q407.44 1023.72, 456 1095.15Q501.66 1068.82, 528 1114.48Q537.03 1051.51, 600 1060.55Q630.17 1018.72, 672 1048.88Q744.3 1001.18, 792 1073.48Q861.79 1023.27, 912 1093.06Q950.68 1011.74, 1032 1050.41Q1076.29 1022.7, 1104 1066.99Q1189.86 1032.85, 1224 1118.7Q1278.6 1053.3, 1344 1107.89Q1354.28 1046.17, 1416 1056.45Q1457.61 1026.06, 1488 1067.67z" fill="white"></path></g><defs><mask id="SvgjsMask1136"><rect width="1440" height="1100" fill="#ffffff"></rect></mask></defs></svg>