<svg xmlns="http://www.w3.org/2000/svg" version="1.1" xmlns:xlink="http://www.w3.org/1999/xlink" xmlns:svgjs="http://svgjs.com/svgjs" width="1433" height="672" preserveAspectRatio="none" viewBox="0 0 1433 672"><g mask="url(&quot;#SvgjsMask1003&quot;)" fill="none"><rect width="1433" height="672" x="0" y="0" fill="rgba(24, 47, 93, 1)"></rect><path d="M1480.7666666666669 672L0 672 L0 495.72Q26.09 450.16, 71.65 476.24Q150.05 435.23, 191.06666666666666 513.63Q195.19 446.1, 262.7166666666667 450.22Q309.68 425.53, 334.3666666666667 472.49Q406.53 425.24, 453.7833333333333 497.4Q500.51 472.48, 525.4333333333333 519.2Q566.01 440.36, 644.8499999999999 480.93Q671.46 435.88, 716.4999999999999 462.49Q771.86 446.2, 788.1499999999999 501.56Q833.44 427.43, 907.5666666666665 472.72Q949.7 443.21, 979.2166666666665 485.34Q994.8 429.27, 1050.8666666666666 444.85Q1120.94 395.51, 1170.2833333333333 465.59Q1257.75 433.64, 1289.7 521.1Q1319.9 479.65, 1361.3500000000001 509.85Q1393.9 422.98, 1480.7666666666669 455.53z" fill="rgba(24, 47, 93, 1)"></path><path d="M1480.7666666666669 672L0 672 L0 544.46Q44.89 517.7, 71.65 562.6Q111.42 482.95, 191.06666666666666 522.72Q240.13 452.36, 310.48333333333335 501.42Q399.93 471.45, 429.9 560.89Q441.97 501.31, 501.54999999999995 513.38Q578.04 470.46, 620.9666666666666 546.95Q675.46 482.03, 740.3833333333332 536.52Q790.91 467.63, 859.7999999999998 518.16Q941.33 480.27, 979.2166666666665 561.8Q1000.06 510.99, 1050.8666666666666 531.83Q1094.28 503.6, 1122.5166666666667 547.01Q1162.91 467.99, 1241.9333333333334 508.39Q1312.89 459.93, 1361.3500000000001 530.89Q1428.82 478.94, 1480.7666666666669 546.41z" fill="#25467d"></path><path d="M1504.65 672L0 672 L0 608.01Q24.95 561.3, 71.65 586.25Q119.45 514.64, 191.06666666666666 562.44Q253.95 553.67, 262.7166666666667 616.55Q313.91 548.32, 382.1333333333333 599.51Q401.06 546.79, 453.7833333333333 565.71Q540.69 533.2, 573.1999999999999 620.1Q621.81 549.29, 692.6166666666666 597.9Q758.41 544.28, 812.0333333333332 610.08Q858.74 585.14, 883.6833333333332 631.85Q891.29 567.8, 955.3333333333331 575.41Q1006.79 507.45, 1074.7499999999998 558.91Q1141.18 553.69, 1146.3999999999999 620.12Q1198.03 552.33, 1265.8166666666666 603.96Q1307.74 526.46, 1385.2333333333333 568.38Q1475.11 538.84, 1504.65 628.72z" fill="#356cb1"></path><path d="M1480.7666666666669 672L0 672 L0 688.86Q35.31 604.76, 119.41666666666666 640.07Q170.66 619.66, 191.06666666666666 670.9Q243.86 604.28, 310.48333333333335 657.07Q388.33 615.5, 429.9 693.35Q464.9 608.93, 549.3166666666666 643.93Q624.72 599.92, 668.7333333333332 675.33Q696.5 631.45, 740.3833333333332 659.21Q789.01 588.42, 859.7999999999998 637.04Q917.58 623.18, 931.4499999999998 680.96Q963.92 594.01, 1050.8666666666666 626.48Q1123.55 579.75, 1170.2833333333333 652.43Q1243.16 605.89, 1289.7 678.77Q1355.68 625.33, 1409.1166666666668 691.31Q1409.77 620.31, 1480.7666666666669 620.97z" fill="white"></path></g><defs><mask id="SvgjsMask1003"><rect width="1433" height="672" fill="#ffffff"></rect></mask></defs></svg>