<svg xmlns="http://www.w3.org/2000/svg" version="1.1" xmlns:xlink="http://www.w3.org/1999/xlink" xmlns:svgjs="http://svgjs.com/svgjs" width="1440" height="864" preserveAspectRatio="none" viewBox="0 0 1440 864"><g mask="url(&quot;#SvgjsMask1103&quot;)" fill="none"><rect width="1440" height="864" x="0" y="0" fill="#1e3266"></rect><path d="M1464 864L0 864 L0 592.21Q22.35 542.56, 72 564.91Q155.15 528.06, 192 611.2Q265.3 564.5, 312 637.81Q327.76 533.57, 432 549.33Q498.46 495.79, 552 562.25Q597.88 536.13, 624 582Q681.17 567.17, 696 624.34Q767.51 575.86, 816 647.37Q857.13 568.5, 936 609.63Q966.12 519.75, 1056 549.87Q1099.89 521.76, 1128 565.66Q1195.51 561.17, 1200 628.69Q1211.3 567.99, 1272 579.29Q1291.17 526.46, 1344 545.63Q1414.97 496.61, 1464 567.58z" fill="#182f5d"></path><path d="M1536 864L0 864 L0 713.75Q25.33 619.08, 120 644.4Q146.7 599.1, 192 625.79Q252.32 614.11, 264 674.43Q283.16 621.59, 336 640.74Q389.01 573.75, 456 626.77Q547.47 598.24, 576 689.71Q623.39 617.11, 696 664.5Q738.09 634.59, 768 676.68Q851.58 640.26, 888 723.84Q905.45 669.29, 960 686.73Q968.97 623.7, 1032 632.67Q1099.49 580.16, 1152 647.65Q1201.21 624.87, 1224 674.08Q1265.56 595.64, 1344 637.2Q1388.32 609.52, 1416 653.83Q1508.74 626.57, 1536 719.31z" fill="#25467d"></path><path d="M1488 864L0 864 L0 765.37Q47.26 740.63, 72 787.9Q139.8 735.7, 192 803.51Q209.53 749.04, 264 766.57Q311.56 742.13, 336 789.69Q365.86 699.55, 456 729.4Q485.18 686.58, 528 715.76Q583.26 699.02, 600 754.29Q665.68 699.97, 720 765.65Q772.5 746.15, 792 798.65Q797.4 732.05, 864 737.44Q910.63 664.07, 984 710.7Q1044.8 699.5, 1056 760.29Q1127.8 712.09, 1176 783.88Q1200.91 688.79, 1296 713.7Q1338.67 684.38, 1368 727.05Q1436.35 675.4, 1488 743.75z" fill="#356cb1"></path><path d="M1512 864L0 864 L0 880.71Q30.65 791.37, 120 822.02Q137.5 767.51, 192 785.01Q263.33 736.34, 312 807.66Q364.88 788.54, 384 841.43Q433.26 770.69, 504 819.95Q562.95 806.9, 576 865.85Q645.02 814.87, 696 883.89Q703.63 819.52, 768 827.15Q808.48 747.63, 888 788.11Q962.47 742.58, 1008 817.05Q1061.12 750.16, 1128 803.28Q1185.27 788.55, 1200 845.82Q1246.09 771.9, 1320 817.99Q1345.49 771.49, 1392 796.98Q1481.63 766.61, 1512 856.24z" fill="white"></path></g><defs><mask id="SvgjsMask1103"><rect width="1440" height="864" fill="#ffffff"></rect></mask></defs></svg>