<svg xmlns="http://www.w3.org/2000/svg" version="1.1" xmlns:xlink="http://www.w3.org/1999/xlink" xmlns:svgjs="http://svgjs.com/svgjs" width="1440" height="560" preserveAspectRatio="none" viewBox="0 0 1440 560"><g mask="url(&quot;#SvgjsMask1000&quot;)" fill="none"><rect width="1440" height="560" x="0" y="0" fill="#1e3266"></rect><path d="M1464 560L0 560 L0 433.87Q51.74 365.61, 120 417.35Q143.49 368.84, 192 392.32Q247.72 376.04, 264 431.76Q313.18 360.94, 384 410.11Q463.04 369.15, 504 448.19Q530.75 402.94, 576 429.7Q626.7 360.4, 696 411.11Q751.29 394.4, 768 449.7Q814.19 375.89, 888 422.08Q956.67 370.75, 1008 439.42Q1028.34 387.76, 1080 408.1Q1145.23 353.34, 1200 418.57Q1247.49 394.06, 1272 441.55Q1314.56 364.11, 1392 406.67Q1434.01 376.69, 1464 418.7z" fill="#182f5d"></path><path d="M1512 560L0 560 L0 441.4Q48.33 417.73, 72 466.05Q140.93 414.98, 192 483.91Q227.88 399.79, 312 435.66Q359.73 411.39, 384 459.13Q450.22 405.35, 504 471.57Q547.84 395.4, 624 439.24Q670.71 413.95, 696 460.66Q747.64 440.31, 768 491.95Q802.63 406.59, 888 441.22Q966.44 399.67, 1008 478.11Q1056.65 406.76, 1128 455.41Q1181.86 437.27, 1200 491.13Q1235.86 406.99, 1320 442.84Q1394.69 397.53, 1440 472.23Q1481.38 441.61, 1512 482.98z" fill="#25467d"></path><path d="M1464 560L0 560 L0 500.96Q51 479.96, 72 530.95Q101.98 488.93, 144 518.91Q195.21 450.12, 264 501.32Q290.82 456.14, 336 482.97Q390.25 465.22, 408 519.47Q462.98 454.45, 528 509.43Q599.75 461.18, 648 532.93Q656.91 469.84, 720 478.76Q787.11 425.87, 840 492.97Q910.76 443.74, 960 514.5Q1027.67 462.17, 1080 529.84Q1094.58 472.42, 1152 486.99Q1222.15 437.14, 1272 507.3Q1341.7 457, 1392 526.71Q1405.36 468.07, 1464 481.42z" fill="#356cb1"></path><path d="M1464 560L0 560 L0 575.05Q55.73 510.77, 120 566.5Q138.45 512.95, 192 531.4Q259 478.4, 312 545.41Q353.86 515.26, 384 557.12Q430.75 483.88, 504 530.63Q569.1 475.73, 624 540.82Q690.34 487.16, 744 553.5Q768.21 505.71, 816 529.93Q857.84 499.77, 888 541.61Q940.16 521.77, 960 573.93Q969.19 511.12, 1032 520.3Q1101.66 469.96, 1152 539.62Q1223.53 491.14, 1272 562.67Q1288.71 507.38, 1344 524.1Q1413.65 473.75, 1464 543.41z" fill="white"></path></g><defs><mask id="SvgjsMask1000"><rect width="1440" height="560" fill="#ffffff"></rect></mask></defs></svg>